PathFileType	4	(X/Y/Z)	 staticP042.trc
DataRate	CameraRate	NumFrames	NumMarkers	Units	OrigDataRate	OrigDataStartFrame	OrigNumFrames
100	100	7	53	M	100	13	100
Frame#	Time	RM1D			RM5D			RM2B			LM1D			LM5D			LM2B			RCAL			LCAL			RLMAL			LLMAL			RMMAL			LMMAL			RSTL			LSTL			RFLE			RFME			LFME			LFLE			RHFIB			LHFIB			RTTUB			LTTUB			RSSH			LSSH			RTL			LTL			RTAP			RTAD			LTAP			LTAD			RTPP			RTPD			LTPP			LTPD			RPSIS			LPSIS			RASIS			LASIS			T10			T2			IJ			SA			RACR			LACR			RHLE			LHLE			RUSP			LUSP			RCB			LCB			IN			LHME			RHME			
		X1	Y1	Z1	X2	Y2	Z2	X3	Y3	Z3	X4	Y4	Z4	X5	Y5	Z5	X6	Y6	Z6	X7	Y7	Z7	X8	Y8	Z8	X9	Y9	Z9	X10	Y10	Z10	X11	Y11	Z11	X12	Y12	Z12	X13	Y13	Z13	X14	Y14	Z14	X15	Y15	Z15	X16	Y16	Z16	X17	Y17	Z17	X18	Y18	Z18	X19	Y19	Z19	X20	Y20	Z20	X21	Y21	Z21	X22	Y22	Z22	X23	Y23	Z23	X24	Y24	Z24	X25	Y25	Z25	X26	Y26	Z26	X27	Y27	Z27	X28	Y28	Z28	X29	Y29	Z29	X30	Y30	Z30	X31	Y31	Z31	X32	Y32	Z32	X33	Y33	Z33	X34	Y34	Z34	X35	Y35	Z35	X36	Y36	Z36	X37	Y37	Z37	X38	Y38	Z38	X39	Y39	Z39	X40	Y40	Z40	X41	Y41	Z41	X42	Y42	Z42	X43	Y43	Z43	X44	Y44	Z44	X45	Y45	Z45	X46	Y46	Z46	X47	Y47	Z47	X48	Y48	Z48	X49	Y49	Z49	X50	Y50	Z50	X51	Y51	Z51	X52	Y52	Z52	X53	Y53	Z53	
13	0.1300	-0.091689	0.047839	-0.164737	-0.126398	0.030473	-0.084824	-0.132024	0.060755	-0.125691	-0.084600	0.047195	-0.341200	-0.120782	0.027219	-0.425937	-0.131152	0.065770	-0.373826	-0.291845	0.053107	-0.151181	-0.287056	0.049990	-0.360175	-0.239901	0.080095	-0.102486	-0.237700	0.079604	-0.406219	-0.223658	0.097537	-0.189723	-0.214465	0.088750	-0.321713	-0.233924	0.045040	-0.184156	-0.228361	0.045055	-0.327032	-0.165616	0.488567	-0.104125	-0.194748	0.458205	-0.217729	-0.213954	0.458698	-0.280734	-0.193778	0.482726	-0.396272	-0.180672	0.442473	-0.100351	-0.206685	0.433052	-0.403171	-0.156391	0.414661	-0.151782	-0.175069	0.414219	-0.350517	-0.169674	0.325668	-0.154137	-0.191420	0.187198	-0.359539	-0.151870	0.684511	-0.067686	-0.166535	0.698376	-0.434959	-0.048284	0.737267	-0.138399	-0.077128	0.606545	-0.139637	-0.062168	0.758521	-0.357081	-0.086137	0.644688	-0.345444	-0.262496	0.709465	-0.146653	-0.265207	0.615507	-0.152238	-0.272433	0.706756	-0.360681	-0.283015	0.611092	-0.359506	-0.245978	1.006898	-0.208252	-0.247397	1.001781	-0.289431	-0.051280	0.963720	-0.130661	-0.063341	0.952761	-0.365798	-0.258569	1.171932	-0.253368	-0.264057	1.415573	-0.256055	-0.120931	1.398680	-0.252125	-0.085512	1.350213	-0.255085	-0.210299	1.421401	-0.075242	-0.202566	1.421964	-0.430558	-0.230669	1.106276	-0.004126	-0.212247	1.102996	-0.487305	-0.194634	0.889345	0.109014	-0.168631	0.880604	-0.585810	-0.084828	1.565185	-0.192291	-0.086525	1.565013	-0.312813	-0.240747	1.476867	-0.257586	-0.182140	1.090252	-0.418126	-0.201390	1.094756	-0.073361	
14	0.1400	-0.091701	0.047849	-0.164744	-0.126397	0.030481	-0.084854	-0.132013	0.060746	-0.125713	-0.084590	0.047198	-0.341220	-0.120782	0.027235	-0.425930	-0.131122	0.065789	-0.373843	-0.291889	0.053137	-0.151179	-0.286994	0.049958	-0.360149	-0.239924	0.080108	-0.102503	-0.237698	0.079600	-0.406222	-0.223656	0.097530	-0.189728	-0.214463	0.088760	-0.321703	-0.233931	0.045025	-0.184175	-0.228337	0.045044	-0.327030	-0.165614	0.488575	-0.104112	-0.194773	0.458199	-0.217726	-0.213962	0.458692	-0.280724	-0.193808	0.482734	-0.396277	-0.180653	0.442469	-0.100343	-0.206713	0.433079	-0.403150	-0.156419	0.414641	-0.151783	-0.175108	0.414209	-0.350505	-0.169680	0.325667	-0.154138	-0.191451	0.187189	-0.359541	-0.151877	0.684501	-0.067683	-0.166582	0.698378	-0.434950	-0.048614	0.737257	-0.138601	-0.077132	0.606558	-0.139605	-0.062187	0.758540	-0.357059	-0.086143	0.644672	-0.345439	-0.262490	0.709463	-0.146646	-0.265201	0.615506	-0.152242	-0.272439	0.706753	-0.360648	-0.283023	0.611096	-0.359465	-0.245964	1.006905	-0.208241	-0.247382	1.001785	-0.289398	-0.051255	0.963722	-0.130624	-0.063333	0.952769	-0.365768	-0.258539	1.171922	-0.253338	-0.264013	1.415596	-0.256038	-0.120936	1.398692	-0.252121	-0.085494	1.350205	-0.255070	-0.210263	1.421409	-0.075201	-0.202554	1.421967	-0.430536	-0.230654	1.106291	-0.004102	-0.212300	1.102990	-0.487300	-0.194607	0.889361	0.109076	-0.168756	0.880590	-0.585845	-0.084816	1.565208	-0.192265	-0.086435	1.565096	-0.312739	-0.240709	1.476868	-0.257580	-0.182913	1.090296	-0.418457	-0.201383	1.094758	-0.073310	
15	0.1500	-0.091687	0.047877	-0.164736	-0.126405	0.030489	-0.084852	-0.132007	0.060745	-0.125699	-0.084598	0.047199	-0.341214	-0.120776	0.027240	-0.425931	-0.131097	0.065776	-0.373852	-0.291851	0.053139	-0.151190	-0.287052	0.049976	-0.360172	-0.239926	0.080114	-0.102510	-0.237697	0.079621	-0.406221	-0.223657	0.097539	-0.189748	-0.214453	0.088750	-0.321734	-0.233883	0.045041	-0.184197	-0.228335	0.045029	-0.327038	-0.165583	0.488577	-0.104082	-0.194761	0.458215	-0.217699	-0.213956	0.458700	-0.280701	-0.193788	0.482744	-0.396248	-0.180654	0.442465	-0.100345	-0.206726	0.433076	-0.403152	-0.156412	0.414652	-0.151780	-0.175078	0.414224	-0.350494	-0.169680	0.325659	-0.154135	-0.191385	0.187230	-0.359525	-0.151898	0.684500	-0.067685	-0.166599	0.698363	-0.434918	-0.048556	0.737276	-0.138564	-0.077125	0.606562	-0.139596	-0.062128	0.758577	-0.357042	-0.086103	0.644675	-0.345464	-0.262478	0.709471	-0.146635	-0.265197	0.615517	-0.152238	-0.272432	0.706763	-0.360593	-0.283015	0.611093	-0.359433	-0.245937	1.006909	-0.208205	-0.247364	1.001783	-0.289370	-0.051209	0.963704	-0.130626	-0.063327	0.952744	-0.365748	-0.258529	1.171930	-0.253318	-0.263985	1.415602	-0.256043	-0.120897	1.398706	-0.252098	-0.085459	1.350152	-0.255064	-0.210222	1.421417	-0.075195	-0.202572	1.421959	-0.430520	-0.230633	1.106309	-0.004064	-0.212365	1.102987	-0.487289	-0.194576	0.889367	0.109113	-0.168866	0.880598	-0.585876	-0.084766	1.565258	-0.192303	-0.086353	1.565156	-0.312665	-0.240686	1.476878	-0.257577	-0.182961	1.090288	-0.418456	-0.201350	1.094772	-0.073277	
16	0.1600	-0.091693	0.047877	-0.164746	-0.126395	0.030485	-0.084855	-0.131997	0.060772	-0.125701	-0.084590	0.047204	-0.341218	-0.120777	0.027247	-0.425939	-0.131106	0.065804	-0.373848	-0.291826	0.053107	-0.151179	-0.287026	0.049978	-0.360164	-0.239905	0.080125	-0.102503	-0.237711	0.079629	-0.406218	-0.223642	0.097545	-0.189720	-0.214450	0.088753	-0.321689	-0.233931	0.045046	-0.184182	-0.228332	0.045035	-0.327040	-0.165568	0.488572	-0.104084	-0.194737	0.458198	-0.217676	-0.213950	0.458707	-0.280688	-0.193796	0.482752	-0.396235	-0.180641	0.442466	-0.100307	-0.206709	0.433059	-0.403127	-0.156396	0.414638	-0.151740	-0.175059	0.414216	-0.350482	-0.169663	0.325670	-0.154124	-0.191394	0.187213	-0.359513	-0.151850	0.684509	-0.067649	-0.166575	0.698364	-0.434895	-0.048552	0.737265	-0.138557	-0.077068	0.606565	-0.139579	-0.062154	0.758587	-0.357017	-0.086093	0.644696	-0.345432	-0.262459	0.709475	-0.146631	-0.265181	0.615509	-0.152217	-0.272431	0.706768	-0.360567	-0.283012	0.611096	-0.359412	-0.245900	1.006926	-0.208167	-0.247342	1.001803	-0.289333	-0.051183	0.963708	-0.130603	-0.063310	0.952755	-0.365733	-0.258493	1.171926	-0.253283	-0.263964	1.415601	-0.256003	-0.120834	1.398710	-0.252086	-0.085487	1.350172	-0.255047	-0.210169	1.421422	-0.075183	-0.202526	1.421943	-0.430499	-0.230624	1.106328	-0.004018	-0.212428	1.102967	-0.487270	-0.194582	0.889409	0.109189	-0.168964	0.880590	-0.585908	-0.084729	1.565270	-0.192288	-0.086292	1.565188	-0.312633	-0.240644	1.476882	-0.257564	-0.182277	1.090214	-0.418115	-0.201331	1.094764	-0.073239	
17	0.1700	-0.091678	0.047880	-0.164736	-0.126397	0.030492	-0.084844	-0.131996	0.060749	-0.125714	-0.084602	0.047213	-0.341203	-0.120767	0.027243	-0.425939	-0.131099	0.065805	-0.373840	-0.291883	0.053149	-0.151163	-0.287033	0.049998	-0.360147	-0.239902	0.080116	-0.102481	-0.237699	0.079616	-0.406221	-0.223650	0.097557	-0.189726	-0.214473	0.088759	-0.321719	-0.233908	0.045072	-0.184173	-0.228340	0.045058	-0.327016	-0.165571	0.488581	-0.104055	-0.194766	0.458218	-0.217684	-0.213931	0.458699	-0.280656	-0.193792	0.482745	-0.396218	-0.180655	0.442475	-0.100296	-0.206694	0.433070	-0.403099	-0.156414	0.414652	-0.151742	-0.175057	0.414236	-0.350458	-0.169672	0.325674	-0.154110	-0.191403	0.187201	-0.359502	-0.151829	0.684492	-0.067620	-0.166595	0.698377	-0.434884	-0.048548	0.737260	-0.138549	-0.077091	0.606533	-0.139562	-0.062209	0.758522	-0.357037	-0.086074	0.644887	-0.345586	-0.262442	0.709489	-0.146601	-0.265172	0.615522	-0.152201	-0.272427	0.706767	-0.360528	-0.282995	0.611102	-0.359368	-0.245868	1.006929	-0.208116	-0.247316	1.001802	-0.289295	-0.051159	0.963696	-0.130577	-0.063268	0.952774	-0.365697	-0.258466	1.171928	-0.253243	-0.263929	1.415591	-0.255987	-0.120838	1.398726	-0.252061	-0.085402	1.350217	-0.254995	-0.210133	1.421430	-0.075148	-0.202526	1.421909	-0.430485	-0.230602	1.106334	-0.003973	-0.212472	1.102954	-0.487255	-0.194560	0.889424	0.109243	-0.169035	0.880591	-0.585944	-0.084742	1.565317	-0.192260	-0.086225	1.565179	-0.312578	-0.240619	1.476875	-0.257557	-0.182292	1.090194	-0.418096	-0.201316	1.094765	-0.073189	
18	0.1800	-0.091674	0.047880	-0.164729	-0.126412	0.030488	-0.084831	-0.131992	0.060756	-0.125713	-0.084472	0.047264	-0.341191	-0.120782	0.027239	-0.425942	-0.131120	0.065796	-0.373831	-0.291842	0.053121	-0.151165	-0.287010	0.049981	-0.360148	-0.239918	0.080120	-0.102494	-0.237683	0.079623	-0.406202	-0.223644	0.097571	-0.189706	-0.214380	0.088804	-0.321635	-0.234190	0.044879	-0.183771	-0.228344	0.045055	-0.327015	-0.165586	0.488563	-0.104030	-0.194735	0.458200	-0.217647	-0.213939	0.458694	-0.280634	-0.193786	0.482735	-0.396189	-0.180633	0.442476	-0.100257	-0.206682	0.433073	-0.403088	-0.156398	0.414647	-0.151729	-0.175059	0.414212	-0.350435	-0.169665	0.325680	-0.154105	-0.191393	0.187223	-0.359490	-0.151835	0.684506	-0.067604	-0.166573	0.698377	-0.434856	-0.048508	0.737271	-0.138543	-0.077100	0.606515	-0.139567	-0.062177	0.758541	-0.357002	-0.086100	0.644665	-0.345390	-0.262433	0.709492	-0.146571	-0.265161	0.615520	-0.152172	-0.272413	0.706772	-0.360496	-0.282998	0.611113	-0.359351	-0.245833	1.006931	-0.208070	-0.247299	1.001815	-0.289263	-0.051133	0.963691	-0.130570	-0.063243	0.952742	-0.365680	-0.258444	1.171943	-0.253179	-0.263902	1.415617	-0.255985	-0.120872	1.398680	-0.252063	-0.085421	1.350170	-0.254984	-0.210095	1.421447	-0.075123	-0.202472	1.421910	-0.430449	-0.230616	1.106348	-0.003930	-0.212553	1.102950	-0.487253	-0.194562	0.889451	0.109304	-0.169113	0.880595	-0.585984	-0.084716	1.565343	-0.192291	-0.086205	1.565168	-0.312560	-0.240587	1.476866	-0.257520	-0.183145	1.090225	-0.418426	-0.201307	1.094771	-0.073163	
19	0.1900	-0.091687	0.047866	-0.164738	-0.126401	0.030501	-0.084846	-0.132019	0.060764	-0.125703	-0.084464	0.047272	-0.341177	-0.120762	0.027251	-0.425928	-0.131132	0.065782	-0.373841	-0.291892	0.053156	-0.151149	-0.287029	0.050007	-0.360133	-0.239916	0.080122	-0.102474	-0.237698	0.079629	-0.406204	-0.223635	0.097569	-0.189692	-0.214401	0.088787	-0.321615	-0.233926	0.045066	-0.184153	-0.228343	0.045046	-0.327026	-0.165557	0.488573	-0.104034	-0.194747	0.458216	-0.217627	-0.213947	0.458677	-0.280612	-0.193791	0.482745	-0.396163	-0.180611	0.442489	-0.100258	-0.206709	0.433091	-0.403080	-0.156465	0.414613	-0.151715	-0.175062	0.414196	-0.350418	-0.169668	0.325646	-0.154098	-0.191408	0.187214	-0.359476	-0.151802	0.684469	-0.067589	-0.166560	0.698368	-0.434837	-0.048519	0.737232	-0.138534	-0.077068	0.606506	-0.139519	-0.062180	0.758464	-0.356978	-0.086106	0.644631	-0.345387	-0.262417	0.709481	-0.146536	-0.265153	0.615532	-0.152138	-0.272404	0.706780	-0.360480	-0.282993	0.611111	-0.359330	-0.245809	1.006936	-0.208032	-0.247274	1.001811	-0.289229	-0.051073	0.963662	-0.130568	-0.063237	0.952741	-0.365644	-0.258426	1.171944	-0.253171	-0.263885	1.415617	-0.255935	-0.120783	1.398667	-0.252044	-0.085361	1.350147	-0.254993	-0.210059	1.421453	-0.075092	-0.202459	1.421906	-0.430437	-0.230641	1.106348	-0.003902	-0.212623	1.102920	-0.487217	-0.194539	0.889463	0.109349	-0.169169	0.880588	-0.586003	-0.084662	1.565304	-0.192266	-0.086189	1.565171	-0.312541	-0.240556	1.476861	-0.257516	-0.182478	1.090112	-0.418063	-0.201307	1.094760	-0.073139	
